<svg height='100px' width='100px'  fill="#68B4FF" xmlns="http://www.w3.org/2000/svg" xmlns:xlink="http://www.w3.org/1999/xlink" xml:space="preserve" version="1.1" style="shape-rendering:geometricPrecision;text-rendering:geometricPrecision;image-rendering:optimizeQuality;" viewBox="0 0 199 199" x="0px" y="0px" fill-rule="evenodd" clip-rule="evenodd"><defs><style type="text/css">
   
    .fil0 {fill:#68B4FF;fill-rule:nonzero}
   
  </style></defs><g><path class="fil0" d="M24 24c32,-32 84,-32 116,0 29,29 32,73 10,105l45 45c13,13 -8,34 -21,21l-45 -45c-32,22 -76,19 -105,-10 -32,-32 -32,-84 0,-116zm18 18c-22,22 -22,58 0,80 22,22 58,22 80,0 22,-22 22,-58 0,-80 -22,-22 -58,-22 -80,0z"></path></g></svg>