<svg height='100px' width='100px'  fill="#FFFFFF" xmlns="http://www.w3.org/2000/svg" xmlns:xlink="http://www.w3.org/1999/xlink" version="1.1" x="0px" y="0px" viewBox="0 0 24 24" style="enable-background:new 0 0 24 24;" xml:space="preserve"><style type="text/css">
	.st0{fill:#FFFFFF;}
</style><g><path class="st0" d="M12,21c-5.2,0-9.5-4.3-9.5-9.5S6.8,2,12,2s9.5,4.3,9.5,9.5S17.2,21,12,21z M12,4c-4.1,0-7.5,3.4-7.5,7.5   S7.9,19,12,19s7.5-3.4,7.5-7.5S16.1,4,12,4z"></path></g><g><path class="st0" d="M16.9,12.5H7.1c-0.6,0-1-0.4-1-1s0.4-1,1-1h9.9c0.6,0,1,0.4,1,1S17.5,12.5,16.9,12.5z"></path></g></svg>