<svg height='100px' width='100px'  fill="#68b4ff" xmlns="http://www.w3.org/2000/svg" xmlns:xlink="http://www.w3.org/1999/xlink" viewBox="0 0 24 24" version="1.1" x="0px" y="0px"><title>Atom / Icon / list-view</title><desc>Created with Sketch.</desc><g stroke="none" stroke-width="1" fill="none" fill-rule="evenodd"><rect fill-rule="nonzero" x="0" y="0" width="24" height="24"></rect><path d="M4.5,3 C4.22385763,3 4,3.22385763 4,3.5 L4,5.5 C4,5.77614237 4.22385763,6 4.5,6 L19.5,6 C19.7761424,6 20,5.77614237 20,5.5 L20,3.5 C20,3.22385763 19.7761424,3 19.5,3 L4.5,3 Z M4.5,2 L19.5,2 C20.3284271,2 21,2.67157288 21,3.5 L21,5.5 C21,6.32842712 20.3284271,7 19.5,7 L4.5,7 C3.67157288,7 3,6.32842712 3,5.5 L3,3.5 C3,2.67157288 3.67157288,2 4.5,2 Z M4.5,10 C4.22385763,10 4,10.2238576 4,10.5 L4,12.5 C4,12.7761424 4.22385763,13 4.5,13 L19.5,13 C19.7761424,13 20,12.7761424 20,12.5 L20,10.5 C20,10.2238576 19.7761424,10 19.5,10 L4.5,10 Z M4.5,9 L19.5,9 C20.3284271,9 21,9.67157288 21,10.5 L21,12.5 C21,13.3284271 20.3284271,14 19.5,14 L4.5,14 C3.67157288,14 3,13.3284271 3,12.5 L3,10.5 C3,9.67157288 3.67157288,9 4.5,9 Z M4.5,17 C4.22385763,17 4,17.2238576 4,17.5 L4,19.5 C4,19.7761424 4.22385763,20 4.5,20 L19.5,20 C19.7761424,20 20,19.7761424 20,19.5 L20,17.5 C20,17.2238576 19.7761424,17 19.5,17 L4.5,17 Z M4.5,16 L19.5,16 C20.3284271,16 21,16.6715729 21,17.5 L21,19.5 C21,20.3284271 20.3284271,21 19.5,21 L4.5,21 C3.67157288,21 3,20.3284271 3,19.5 L3,17.5 C3,16.6715729 3.67157288,16 4.5,16 Z" fill="#68b4ff" fill-rule="nonzero"></path></g></svg>