<svg xmlns="http://www.w3.org/2000/svg" height="100" width="100" viewBox="0 0 100 100" fill="#1A1A1A"><path d="m8 16c-1 0-2 1-2 2l0 40c0 1 1 2 2 2l18 0 0 22c0 1 1 2 2 2l64 0c1 0 2-1 2-2l0-40c0-1-0.8-1.9-1.8-2-0.1 0-0.1 0-0.2 0l-18 0 0-22c0-1-0.8-1.9-1.8-2-0.1 0-0.1 0-0.2 0zm2 4 60 0 0 8-60 0zm38 2 0 4 4 0 0-4zm8 0 0 4 4 0 0-4zm8 0 0 4 4 0 0-4zm-54 10 60 0 0 8-42 0c-1 0-2 1-2 2l0 14-16 0zm20 12 60 0 0 8-60 0zm38 2 0 4 4 0 0-4zm8 0 0 4 4 0 0-4zm8 0 0 4 4 0 0-4zm-54 10 60 0 0 24-60 0z" style="-inkscape-font-specification:Sans;baseline-shift:baseline;block-progression:tb;direction:ltr;fill:#1A1A1A;font-family:Sans;font-size:medium;letter-spacing:normal;line-height:normal;stroke-width:4;text-align:start;text-decoration:none;text-indent:0;text-transform:none;word-spacing:normal"/></svg>