<svg height='100px' width='100px'  fill="#FFFFFF" xmlns="http://www.w3.org/2000/svg" xmlns:xlink="http://www.w3.org/1999/xlink" version="1.1" x="0px" y="0px" viewBox="0 0 30 30" enable-background="new 0 0 30 30" xml:space="preserve"><polygon points="22.859,7.141 22.859,2.444 19.859,2.444 19.859,7.141 15.163,7.141 15.163,10.141 19.859,10.141 19.859,14.837   22.859,14.837 22.859,10.141 27.556,10.141 27.556,7.141 "></polygon><path d="M24.038,21.932c0,1.447-1.177,2.624-2.624,2.624H8.068c-1.447,0-2.624-1.177-2.624-2.624V8.586  c0-1.447,1.177-2.624,2.624-2.624h4.131v-3H8.068c-3.101,0-5.624,2.523-5.624,5.624v13.346c0,3.101,2.523,5.624,5.624,5.624h13.346  c3.101,0,5.624-2.523,5.624-5.624v-4.132h-3V21.932z"></path></svg>