<svg height='100px' width='100px'  fill="#FFFFFF" xmlns="http://www.w3.org/2000/svg" data-name="Layer 1" viewBox="0 0 100 100" x="0px" y="0px"><title>10</title><path d="M84.81,18.49H66.06L61.34,9a2,2,0,0,0-1.79-1.11H40.45A2,2,0,0,0,38.66,9l-4.72,9.49H15.19a2,2,0,1,0,0,4h5.27V81.11a11,11,0,0,0,11,11H68.54a11,11,0,0,0,11-11V22.49h5.27a2,2,0,0,0,0-4Zm-43.12-6.6H58.31l3.28,6.6H38.41ZM75.54,81.11a7,7,0,0,1-7,7H31.46a7,7,0,0,1-7-7V22.49H75.54Z"></path><path d="M50,80.51a2,2,0,0,0,2-2V32.2a2,2,0,0,0-4,0v46.3A2,2,0,0,0,50,80.51Z"></path><path d="M62.77,80.51a2,2,0,0,0,2-2V32.2a2,2,0,1,0-4,0v46.3A2,2,0,0,0,62.77,80.51Z"></path><path d="M37.23,80.51a2,2,0,0,0,2-2V32.2a2,2,0,1,0-4,0v46.3A2,2,0,0,0,37.23,80.51Z"></path></svg>