<svg height='100px' width='100px'  fill="#000000" xmlns:dc="http://purl.org/dc/elements/1.1/" xmlns:cc="http://creativecommons.org/ns#" xmlns:rdf="http://www.w3.org/1999/02/22-rdf-syntax-ns#" xmlns:svg="http://www.w3.org/2000/svg" xmlns="http://www.w3.org/2000/svg" xmlns:sodipodi="http://sodipodi.sourceforge.net/DTD/sodipodi-0.dtd" xmlns:inkscape="http://www.inkscape.org/namespaces/inkscape" version="1.1" x="0px" y="0px" viewBox="0 0 100 100"><g transform="translate(0,-952.36218)"><path d="m 37.0198,990.60732 c 0.2639,-0.003 0.5284,0.0462 0.7731,0.1449 0.2448,0.0987 0.4697,0.2464 0.6575,0.4318 0.1878,0.1854 0.3384,0.4084 0.4401,0.6519 0.1018,0.2436 0.1547,0.5074 0.1547,0.7713 0,0.2639 -0.0529,0.5277 -0.1547,0.7712 -0.1017,0.2435 -0.2523,0.4665 -0.4401,0.652 -0.1878,0.1854 -0.4127,0.3331 -0.6575,0.4318 -0.2447,0.0986 -0.5092,0.1482 -0.7731,0.1448 l -3.89,0 c -0.2639,0.003 -0.5284,-0.0462 -0.7731,-0.1448 -0.2448,-0.0987 -0.4697,-0.2464 -0.6575,-0.4318 -0.1878,-0.1855 -0.3384,-0.4085 -0.4401,-0.652 -0.1018,-0.2435 -0.1547,-0.5073 -0.1547,-0.7712 0,-0.2639 0.0529,-0.5277 0.1547,-0.7713 0.1017,-0.2435 0.2523,-0.4665 0.4401,-0.6519 0.1878,-0.1854 0.4127,-0.3331 0.6575,-0.4318 0.2447,-0.0987 0.5092,-0.1482 0.7731,-0.1449 z" style="text-indent:0;text-transform:none;direction:ltr;block-progression:tb;baseline-shift:baseline;color:#000000;enable-background:accumulate;" fill="#000000" fill-opacity="1" fill-rule="evenodd" stroke="none" marker="none" visibility="visible" display="inline" overflow="visible"></path><path d="m 27.3498,990.60732 c 0.2639,-0.003 0.5284,0.0462 0.7731,0.1449 0.2448,0.0987 0.4697,0.2464 0.6575,0.4318 0.1878,0.1854 0.3384,0.4084 0.4401,0.6519 0.1018,0.2436 0.1547,0.5074 0.1547,0.7713 0,0.2639 -0.0529,0.5277 -0.1547,0.7712 -0.1017,0.2435 -0.2523,0.4665 -0.4401,0.652 -0.1878,0.1854 -0.4127,0.3331 -0.6575,0.4318 -0.2447,0.0986 -0.5092,0.1482 -0.7731,0.1448 l -3.89,0 c -0.2639,0.003 -0.5284,-0.0462 -0.7731,-0.1448 -0.2448,-0.0987 -0.4697,-0.2464 -0.6575,-0.4318 -0.1878,-0.1855 -0.3384,-0.4085 -0.4401,-0.652 -0.1018,-0.2435 -0.1547,-0.5073 -0.1547,-0.7712 0,-0.2639 0.0529,-0.5277 0.1547,-0.7713 0.1017,-0.2435 0.2523,-0.4665 0.4401,-0.6519 0.1878,-0.1854 0.4127,-0.3331 0.6575,-0.4318 0.2447,-0.0987 0.5092,-0.1482 0.7731,-0.1449 z" style="text-indent:0;text-transform:none;direction:ltr;block-progression:tb;baseline-shift:baseline;color:#000000;enable-background:accumulate;" fill="#000000" fill-opacity="1" fill-rule="evenodd" stroke="none" marker="none" visibility="visible" display="inline" overflow="visible"></path><path d="m 17.6698,990.60732 c 0.2639,-0.003 0.5284,0.0462 0.7731,0.1449 0.2448,0.0987 0.4697,0.2464 0.6575,0.4318 0.1878,0.1854 0.3384,0.4084 0.4401,0.6519 0.1018,0.2436 0.1547,0.5074 0.1547,0.7713 0,0.2639 -0.0529,0.5277 -0.1547,0.7712 -0.1017,0.2435 -0.2523,0.4665 -0.4401,0.652 -0.1878,0.1854 -0.4127,0.3331 -0.6575,0.4318 -0.2447,0.0986 -0.5092,0.1482 -0.7731,0.1448 l -3.88,0 c -0.2639,0.003 -0.5284,-0.0462 -0.7731,-0.1448 -0.2448,-0.0987 -0.4697,-0.2464 -0.6575,-0.4318 -0.1878,-0.1855 -0.3384,-0.4085 -0.4401,-0.652 -0.1018,-0.2435 -0.1547,-0.5073 -0.1547,-0.7712 0,-0.2639 0.0529,-0.5277 0.1547,-0.7713 0.1017,-0.2435 0.2523,-0.4665 0.4401,-0.6519 0.1878,-0.1854 0.4127,-0.3331 0.6575,-0.4318 0.2447,-0.0987 0.5092,-0.1482 0.7731,-0.1449 z" style="text-indent:0;text-transform:none;direction:ltr;block-progression:tb;baseline-shift:baseline;color:#000000;enable-background:accumulate;" fill="#000000" fill-opacity="1" fill-rule="evenodd" stroke="none" marker="none" visibility="visible" display="inline" overflow="visible"></path><path d="m 85.9798,960.75732 c 4.4016,0 8.02,3.6185 8.02,8.02 l 0,44.96998 c 0,4.3949 -3.6184,8.0097 -8.02,8.0097 l -12.41,0 0,14.1903 c 0,4.4016 -3.6184,8.0197 -8.02,8.0197 l -51.539999,0 c -4.401501,0 -8.009601,-3.6222 -8.009601,-8.0197 l 0,-44.96998 c 0,-4.3975 3.6121,-8.01 8.009601,-8.01 l 12.4104,0 0,-14.19 c 0,-4.4015 3.6181,-8.02 8.019599,-8.02 z m 0,3.9997 -51.54,0 c -2.2184,0 -4.02,1.8019 -4.02,4.0203 l 0,5.75 59.5804,0 0,-5.75 c 0,-2.2184 -1.8019,-4.0203 -4.0204,-4.0203 z m 4.0204,13.77 -59.5804,0 0,4.4403 35.13,0 c 4.3976,0 8.02,3.6085 8.02,8.01 l 0,26.77998 12.41,0 c 2.2185,0 4.0204,-1.8048 4.0204,-4.01 z m -24.4504,8.44 -51.54,0 c -2.2224,0 -4.01,1.7878 -4.01,4.0103 l 0,5.75 59.5704,0 0,-5.75 c 0,-2.2184 -1.7979,-4.0103 -4.0204,-4.0103 z m 4.0204,13.75998 -59.5704,0 0,35.2203 c 0,2.2225 1.7916,4.02 4.01,4.02 l 51.54,0 c 2.2185,0 4.0204,-1.8015 4.0204,-4.02 z" style="text-indent:0;text-transform:none;direction:ltr;block-progression:tb;baseline-shift:baseline;color:#000000;enable-background:accumulate;" fill="#000000" fill-opacity="1" fill-rule="evenodd" stroke="none" marker="none" visibility="visible" display="inline" overflow="visible"></path><path d="m 57.4398,968.40732 c 0.2639,-0.003 0.5284,0.0462 0.7731,0.1449 0.2448,0.0987 0.4697,0.2464 0.6575,0.4318 0.1878,0.1854 0.3384,0.4084 0.4401,0.6519 0.1018,0.2436 0.1547,0.5074 0.1547,0.7713 0,0.2639 -0.0529,0.5277 -0.1547,0.7712 -0.1017,0.2435 -0.2523,0.4665 -0.4401,0.652 -0.1878,0.1854 -0.4127,0.3331 -0.6575,0.4318 -0.2447,0.0986 -0.5092,0.1482 -0.7731,0.1448 l -3.88,0 c -0.2639,0.003 -0.5284,-0.0462 -0.7731,-0.1448 -0.2448,-0.0987 -0.4697,-0.2464 -0.6575,-0.4318 -0.1878,-0.1855 -0.3384,-0.4085 -0.4401,-0.652 -0.1018,-0.2435 -0.1547,-0.5073 -0.1547,-0.7712 0,-0.2639 0.0529,-0.5277 0.1547,-0.7713 0.1017,-0.2435 0.2523,-0.4665 0.4401,-0.6519 0.1878,-0.1854 0.4127,-0.3331 0.6575,-0.4318 0.2447,-0.0987 0.5092,-0.1482 0.7731,-0.1449 z" style="text-indent:0;text-transform:none;direction:ltr;block-progression:tb;baseline-shift:baseline;color:#000000;enable-background:accumulate;" fill="#000000" fill-opacity="1" fill-rule="evenodd" stroke="none" marker="none" visibility="visible" display="inline" overflow="visible"></path><path d="m 47.7698,968.40732 c 0.2639,-0.003 0.5284,0.0462 0.7731,0.1449 0.2448,0.0987 0.4697,0.2464 0.6575,0.4318 0.1878,0.1854 0.3384,0.4084 0.4401,0.6519 0.1018,0.2436 0.1547,0.5074 0.1547,0.7713 0,0.2639 -0.0529,0.5277 -0.1547,0.7712 -0.1017,0.2435 -0.2523,0.4665 -0.4401,0.652 -0.1878,0.1854 -0.4127,0.3331 -0.6575,0.4318 -0.2447,0.0986 -0.5092,0.1482 -0.7731,0.1448 l -3.89,0 c -0.2639,0.003 -0.5284,-0.0462 -0.7731,-0.1448 -0.2448,-0.0987 -0.4697,-0.2464 -0.6575,-0.4318 -0.1878,-0.1855 -0.3384,-0.4085 -0.4401,-0.652 -0.1018,-0.2435 -0.1547,-0.5073 -0.1547,-0.7712 0,-0.2639 0.0529,-0.5277 0.1547,-0.7713 0.1017,-0.2435 0.2523,-0.4665 0.4401,-0.6519 0.1878,-0.1854 0.4127,-0.3331 0.6575,-0.4318 0.2447,-0.0987 0.5092,-0.1482 0.7731,-0.1449 z" style="text-indent:0;text-transform:none;direction:ltr;block-progression:tb;baseline-shift:baseline;color:#000000;enable-background:accumulate;" fill="#000000" fill-opacity="1" fill-rule="evenodd" stroke="none" marker="none" visibility="visible" display="inline" overflow="visible"></path><path d="m 38.0998,968.40732 c 0.2639,-0.003 0.5284,0.0462 0.7731,0.1449 0.2448,0.0987 0.4697,0.2464 0.6575,0.4318 0.1878,0.1854 0.3384,0.4084 0.4401,0.6519 0.1018,0.2436 0.1547,0.5074 0.1547,0.7713 0,0.2639 -0.0529,0.5277 -0.1547,0.7712 -0.1017,0.2435 -0.2523,0.4665 -0.4401,0.652 -0.1878,0.1854 -0.4127,0.3331 -0.6575,0.4318 -0.2447,0.0986 -0.5092,0.1482 -0.7731,0.1448 l -3.89,0 c -0.2639,0.003 -0.5284,-0.0462 -0.7731,-0.1448 -0.2448,-0.0987 -0.4697,-0.2464 -0.6575,-0.4318 -0.1878,-0.1855 -0.3384,-0.4085 -0.4401,-0.652 -0.1018,-0.2435 -0.1547,-0.5073 -0.1547,-0.7712 0,-0.2639 0.0529,-0.5277 0.1547,-0.7713 0.1017,-0.2435 0.2523,-0.4665 0.4401,-0.6519 0.1878,-0.1854 0.4127,-0.3331 0.6575,-0.4318 0.2447,-0.0987 0.5092,-0.1482 0.7731,-0.1449 z" style="text-indent:0;text-transform:none;direction:ltr;block-progression:tb;baseline-shift:baseline;color:#000000;enable-background:accumulate;" fill="#000000" fill-opacity="1" fill-rule="evenodd" stroke="none" marker="none" visibility="visible" display="inline" overflow="visible"></path></g></svg>